<svg id="Main" xmlns="http://www.w3.org/2000/svg" viewBox="0 0 3966.43 1080"><defs><style>.cls-1{fill:#b8a4e0;}.cls-2{fill:#ed5e26;}.cls-3{fill:#200751;}.cls-4{fill:#ef6723;}</style></defs><path class="cls-1" d="M1396.31,241.06V445.83a11,11,0,0,0-11-11h-137.9a11,11,0,0,0-11,11V241.06a11,11,0,0,1,11-11h137.9A11,11,0,0,1,1396.31,241.06Z"/><path class="cls-1" d="M1648.84,493.92v137a11.41,11.41,0,0,1-11.44,11.35H1396.31V482.48H1637.4A11.48,11.48,0,0,1,1648.84,493.92Z"/><path class="cls-2" d="M1648.84,698.68v137a11.42,11.42,0,0,1-11.44,11.36H1247.93a11.37,11.37,0,0,1-11.44-11.36V642.29h159.82v45H1637.4A11.49,11.49,0,0,1,1648.84,698.68Z"/><path class="cls-3" d="M1396.31,445.8V642.27H1236.49V445.8a11,11,0,0,1,11-11h137.9A11,11,0,0,1,1396.31,445.8Z"/><path class="cls-1" d="M1119.14,242V447.52a10.89,10.89,0,0,0-3.54-8.22A12.92,12.92,0,0,0,1112,437a20.92,20.92,0,0,0-2.09-.65,10.55,10.55,0,0,0-6.28.57,10,10,0,0,0-3.79,2.41v.08L908.34,641.57H812.08L620.69,439.38a10.67,10.67,0,0,0-2.42-1.77,9.09,9.09,0,0,0-2-.88,5.53,5.53,0,0,0-1.61-.41,4.23,4.23,0,0,0-1-.08,6.57,6.57,0,0,0-3.06.08,19.72,19.72,0,0,0-2,.65,10.83,10.83,0,0,0-1.93,1,11.06,11.06,0,0,0-4.27,4.92,9.9,9.9,0,0,0-1.05,4.67V242a11.41,11.41,0,0,1,19.33-8.22L852.27,478.53a11.43,11.43,0,0,0,15.87,0l231.67-244.72A11.41,11.41,0,0,1,1119.14,242Z"/><path class="cls-2" d="M601.27,641.65v194a11.39,11.39,0,0,0,11.44,11.44h495a11.43,11.43,0,0,0,11.44-11.44v-194H908.34L868.14,684a11.43,11.43,0,0,1-15.87,0l-40.11-42.37Z"/><path class="cls-3" d="M1119.14,447.49v194H908.42l191.39-202.18a11.41,11.41,0,0,1,3.79-2.5,11.06,11.06,0,0,1,6.28-.56,20.83,20.83,0,0,1,2.09.64,8.74,8.74,0,0,1,2.66,1.53,7.71,7.71,0,0,1,1,.81A10.85,10.85,0,0,1,1119.14,447.49Z"/><path class="cls-3" d="M812.08,641.54H601.35v-194a11.16,11.16,0,0,1,5.24-9.58,10.26,10.26,0,0,1,1.93-1,19.64,19.64,0,0,1,2-.64,9.3,9.3,0,0,1,3.06-.08,4.23,4.23,0,0,1,1,.08,5.85,5.85,0,0,1,1.61.4,9.09,9.09,0,0,1,2,.88,10.71,10.71,0,0,1,2.42,1.78Z"/><polygon class="cls-4" points="2145.28 641.77 2145.36 641.85 1853.04 641.85 1853.04 641.77 2145.28 641.77"/><polyline class="cls-4" points="2142.26 637.06 2145.25 641.47 2145.33 641.55"/><path class="cls-1" d="M1995.08,235.49a13,13,0,0,0-4.75-3.87,13.59,13.59,0,0,0-1.93-.56,11.59,11.59,0,0,0-5.24,0,9.63,9.63,0,0,0-4.51,2.25,4.17,4.17,0,0,0-1.05,1c-.32.4-.56.73-.88,1.13L1731.11,554.63a22.61,22.61,0,0,0-4.27,13.38v62.18a11.36,11.36,0,0,0,11.36,11.44h495.24a11.37,11.37,0,0,0,11.43-11.44V567.6a23.61,23.61,0,0,0-4.26-13.37Z"/><path class="cls-2" d="M1995.08,440.9a13,13,0,0,0-4.75-3.87,13.59,13.59,0,0,0-1.93-.56,11.32,11.32,0,0,0-5.24,0,9.53,9.53,0,0,0-4.51,2.25,4,4,0,0,0-1.05,1c-.32.4-.56.72-.88,1.13L1731.11,760a22.6,22.6,0,0,0-4.27,13.37V835.6A11.36,11.36,0,0,0,1738.2,847h495.24a11.37,11.37,0,0,0,11.43-11.44V773a23.61,23.61,0,0,0-4.26-13.37Z"/><path class="cls-3" d="M2149.71,641.63h-327.5l154.46-200.77c.32-.41.56-.73.89-1.21a3.92,3.92,0,0,1,1-1,10.31,10.31,0,0,1,4.58-2.26,11.55,11.55,0,0,1,5.23,0,15,15,0,0,1,1.93.57,12.27,12.27,0,0,1,4.74,3.94Z"/><circle class="cls-2" cx="297.61" cy="538.54" r="105.51"/><path class="cls-3" d="M2453.31,859.12V221H2535V759h215.69V859.12Z"/><path class="cls-3" d="M2815.16,859.12V221h81.73V859.12Z"/><path class="cls-3" d="M3108.5,859.12,2954.53,221h84.1L3167.5,755.42,3298.07,221h84.1l-154,638.15Z"/><path class="cls-3" d="M3433,859.12V221h315.39V321.13H3514.76V478.45h193V578.6h-193V759h233.66V859.12Z"/></svg>